# xmcd
#
# Track frame offsets:
#	150
#	10383
#	26696
#	40345
#	54478
#	66393
#	89193
#	107997
#	124643
#	138634
#	156048
#	178960
#	193368
#
# Disc length: 2805 seconds
#
# Revision: 0
# Processed by: cddbd v1.5.1PL0 Copyright (c) Steve Scherf et al.
# Submitted via: EasyCDDAExtractor 8.2.1.1
#
DISCID=c80af30d
DTITLE=Mark Wilson - The Beginning Of the End
DYEAR=2003
DGENRE=Blues
TTITLE0=The Beginning Of the End
TTITLE1=Better Days
TTITLE2=Distant Sun
TTITLE3=Hope Is A Long Lost Friend
TTITLE4=Lost
TTITLE5=Glow
TTITLE6=Footprints
TTITLE7=Harlem
TTITLE8=Finest Hour
TTITLE9=Mind Body and Soul
TTITLE10=Here Somes The Rain (Carpe Dium)
TTITLE11=Finale
TTITLE12=Restless Wind
EXTD=
EXTT0=
EXTT1=
EXTT2=
EXTT3=
EXTT4=
EXTT5=
EXTT6=
EXTT7=
EXTT8=
EXTT9=
EXTT10=
EXTT11=
EXTT12=
PLAYORDER=
